{
  "accessors": [
    {
      "bufferView": 2,
      "componentType": 5126,
      "count": 1434,
      "max": [
        1.604254961013794,
        1.604254961013794,
        2.3535029888153076
      ],
      "min": [
        -1.604254961013794,
        -1.604254961013794,
        -2.3535029888153076
      ],
      "type": "VEC3"
    },
    {
      "bufferView": 2,
      "byteOffset": 17208,
      "componentType": 5126,
      "count": 1434,
      "max": [
        0.998629629611969,
        0.9986295104026794,
        1.0
      ],
      "min": [
        -0.998629629611969,
        -0.9986295104026794,
        -1.0
      ],
      "type": "VEC3"
    },
    {
      "bufferView": 3,
      "componentType": 5126,
      "count": 1434,
      "max": [
        0.9995425939559937,
        0.9995376467704773,
        0.999393880367279,
        1.0
      ],
      "min": [
        -0.9995400905609131,
        -0.9995405077934265,
        -0.9997188448905945,
        1.0
      ],
      "type": "VEC4"
    },
    {
      "bufferView": 1,
      "componentType": 5126,
      "count": 1434,
      "max": [
        0.9923753142356873,
        0.9950281381607056
      ],
      "min": [
        0.004895365796983242,
        0.12949815392494202
      ],
      "type": "VEC2"
    },
    {
      "bufferView": 1,
      "byteOffset": 11472,
      "componentType": 5126,
      "count": 1434,
      "max": [
        0.9923753142356873,
        0.9950281381607056
      ],
      "min": [
        0.004895365796983242,
        0.12949815392494202
      ],
      "type": "VEC2"
    },
    {
      "bufferView": 1,
      "byteOffset": 22944,
      "componentType": 5126,
      "count": 1434,
      "max": [
        0.9923753142356873,
        0.9950281381607056
      ],
      "min": [
        0.004895365796983242,
        0.12949815392494202
      ],
      "type": "VEC2"
    },
    {
      "bufferView": 0,
      "componentType": 5125,
      "count": 4308,
      "type": "SCALAR"
    }
  ],
  "asset": {
    "extras": {
      "author": "plaggy (https://sketchfab.com/plaggy)",
      "license": "CC-BY-4.0 (http://creativecommons.org/licenses/by/4.0/)",
      "source": "https://sketchfab.com/3d-models/cc0-potato-chips-tube-2-4fdfeee52bc94bf1a4b7fd84d8945835",
      "title": "CC0 - Potato Chips Tube 2"
    },
    "generator": "Sketchfab-15.50.0",
    "version": "2.0"
  },
  "bufferViews": [
    {
      "buffer": 0,
      "byteLength": 17232,
      "name": "floatBufferViews",
      "target": 34963
    },
    {
      "buffer": 0,
      "byteLength": 34416,
      "byteOffset": 17232,
      "byteStride": 8,
      "name": "floatBufferViews",
      "target": 34962
    },
    {
      "buffer": 0,
      "byteLength": 34416,
      "byteOffset": 51648,
      "byteStride": 12,
      "name": "floatBufferViews",
      "target": 34962
    },
    {
      "buffer": 0,
      "byteLength": 22944,
      "byteOffset": 86064,
      "byteStride": 16,
      "name": "floatBufferViews",
      "target": 34962
    }
  ],
  "buffers": [
    {
      "byteLength": 109008,
      "uri": "scene.bin"
    }
  ],
  "images": [
    {
      "uri": "textures/PotatoChipsTube2_baseColor.png"
    },
    {
      "uri": "textures/PotatoChipsTube2_metallicRoughness.png"
    },
    {
      "uri": "textures/PotatoChipsTube2_normal.png"
    }
  ],
  "materials": [
    {
      "name": "PotatoChipsTube2",
      "normalTexture": {
        "index": 2
      },
      "occlusionTexture": {
        "index": 1
      },
      "pbrMetallicRoughness": {
        "baseColorTexture": {
          "index": 0
        },
        "metallicRoughnessTexture": {
          "index": 1
        }
      }
    }
  ],
  "meshes": [
    {
      "name": "PotatoChipsTube2_PotatoChipsTube2_0",
      "primitives": [
        {
          "attributes": {
            "NORMAL": 1,
            "POSITION": 0,
            "TANGENT": 2,
            "TEXCOORD_0": 3,
            "TEXCOORD_1": 4,
            "TEXCOORD_2": 5
          },
          "indices": 6,
          "material": 0,
          "mode": 4
        }
      ]
    }
  ],
  "nodes": [
    {
      "children": [
        1
      ],
      "matrix": [
        1.0,
        0.0,
        0.0,
        0.0,
        0.0,
        2.220446049250313e-16,
        -1.0,
        0.0,
        0.0,
        1.0,
        2.220446049250313e-16,
        0.0,
        0.0,
        0.0,
        0.0,
        1.0
      ],
      "name": "Sketchfab_model"
    },
    {
      "children": [
        2
      ],
      "matrix": [
        0.02539999969303608,
        0.0,
        0.0,
        0.0,
        0.0,
        0.0,
        0.02539999969303608,
        0.0,
        0.0,
        -0.02539999969303608,
        0.0,
        0.0,
        0.0,
        0.0,
        0.0,
        1.0
      ],
      "name": "69b42a73163d420bb887232dd537f6cb.fbx"
    },
    {
      "children": [
        3
      ],
      "name": "RootNode"
    },
    {
      "children": [
        4
      ],
      "matrix": [
        1.0,
        0.0,
        0.0,
        0.0,
        0.0,
        2.220446049250313e-16,
        -1.0,
        0.0,
        0.0,
        1.0,
        2.220446049250313e-16,
        0.0,
        0.0,
        0.0,
        -2.384185791015625e-07,
        1.0
      ],
      "name": "PotatoChipsTube2"
    },
    {
      "mesh": 0,
      "name": "PotatoChipsTube2_PotatoChipsTube2_0"
    }
  ],
  "samplers": [
    {
      "magFilter": 9729,
      "minFilter": 9987,
      "wrapS": 10497,
      "wrapT": 10497
    }
  ],
  "scene": 0,
  "scenes": [
    {
      "name": "Sketchfab_Scene",
      "nodes": [
        0
      ]
    }
  ],
  "textures": [
    {
      "sampler": 0,
      "source": 0
    },
    {
      "sampler": 0,
      "source": 1
    },
    {
      "sampler": 0,
      "source": 2
    }
  ]
}
